/* XPM */
static char *barrel[] = {
/* columns rows colors chars-per-pixel */
"32 32 106 2 ",
"   c #000000",
".  c #090603",
"X  c #0B0B0B",
"o  c #120E06",
"O  c #141414",
"+  c #161718",
"@  c #1A1A1B",
"#  c #26180E",
"$  c #221D15",
"%  c #2E271B",
"&  c #3E2714",
"*  c #382812",
"=  c #32261C",
"-  c #3B2D1A",
";  c #3D311D",
":  c #232322",
">  c #25272A",
",  c #292B2D",
"<  c #342C21",
"1  c #3B2E24",
"2  c #383122",
"3  c #31302F",
"4  c #3E3628",
"5  c #2C2F32",
"6  c #343434",
"7  c #393632",
"8  c #383836",
"9  c #34373A",
"0  c #3B3B3C",
"q  c #422F13",
"w  c #443216",
"e  c #4C3616",
"r  c #443118",
"t  c #4C361A",
"y  c #4D381C",
"u  c #5B3D1E",
"i  c #633E1C",
"p  c #4E3B20",
"a  c #403529",
"s  c #5C3E21",
"d  c #433D36",
"f  c #613E21",
"g  c #66411E",
"h  c #4F4234",
"j  c #534333",
"k  c #564739",
"l  c #5C4B3C",
"z  c #624123",
"x  c #6E4625",
"c  c #6E4929",
"v  c #734623",
"b  c #744825",
"n  c #734B2C",
"m  c #7A4D2D",
"M  c #614D3D",
"N  c #784F30",
"B  c #3C3F41",
"V  c #3F4346",
"C  c #444444",
"Z  c #45494A",
"A  c #4B4B49",
"S  c #50504E",
"D  c #5B534B",
"F  c #4C4E50",
"G  c #4D5053",
"H  c #535556",
"J  c #525658",
"K  c #53585B",
"L  c #5C5D5C",
"P  c #6A5544",
"I  c #6A5748",
"U  c #745B4A",
"Y  c #785D4C",
"T  c #6A5F55",
"R  c #7E6452",
"E  c #7A6A5F",
"W  c #5B5F60",
"Q  c #5E6163",
"!  c #636363",
"~  c #636768",
"^  c #6A6B6A",
"/  c #7D7067",
"(  c #74706D",
")  c #6B6E70",
"_  c #727272",
"`  c #787470",
"'  c #787879",
"]  c #824F28",
"[  c #84512C",
"{  c #88542E",
"}  c #91552F",
"|  c #855633",
" . c #8C5632",
".. c #865837",
"X. c #8C5A35",
"o. c #8D5D3B",
"O. c #925730",
"+. c #9B5D34",
"@. c #945E39",
"#. c #9C633B",
"$. c #A26237",
"%. c #A1643C",
"&. c #956341",
"*. c #836754",
"=. c #896D5A",
"-. c #8A705E",
/* pixels */
"                                                                ",
"                                                                ",
"                                                                ",
"                                                                ",
"                                                                ",
"                                                                ",
"                                                                ",
"                                                                ",
"                                                                ",
"                                                                ",
"                                                                ",
"                                                                ",
"                                                                ",
"                                                                ",
"                                                                ",
"                      @ 8 6 6 , 8 8 8 B 0 X                     ",
"                    F H B C C Z Z S H L ! L +                   ",
"                  # E _ ^ L L H S A C B 8 8 %                   ",
"                  f O.o. ...N N m z s y t w w o                 ",
"                . m X.+.$.$.] +.O.b i b u u y @                 ",
"                : ^ ( =.=.R U U U M l M d d 0 %                 ",
"                = T ! ) Q W K H Z A Z 0 0 8 3 ;                 ",
"                & { @... .| b m b f y u y y t q                 ",
"                & X.#.#.%.#. . .| v f m f t t r .               ",
"                & { #.#.#.@.|  .[ x f b s t e w                 ",
"                1 o.#.+.$.+.{  .[ x i v i t y 4                 ",
"                6 ' ` -.*.R U U U M l l j d 0 >                 ",
"                O D ! ~ Q W K H Z Z Z 0 V 7 < - .               ",
"                  v m [ | b z c z z t z t r e *                 ",
"                  a &.{ { } v m [ g g x e t t X                 ",
"                  @ _ / R R I I P k j j 4 2 $                   ",
"                    @ F Q K G F V 0 9 5 , O                     "
};
