/* XPM */
static char *eagle[] = {
/* columns rows colors chars-per-pixel */
"32 32 223 2 ",
"   c #1A1717",
".  c #1A0A0A",
"X  c #2C0202",
"o  c #2C0909",
"O  c #340808",
"+  c #241616",
"@  c #3C1515",
"#  c #3D1919",
"$  c #3D003D",
"%  c #3F113E",
"&  c #252626",
"*  c #372727",
"=  c #3A3A3C",
"-  c #2F3535",
";  c #4C0000",
":  c #550101",
">  c #580303",
",  c #451A19",
"<  c #5C1B1B",
"1  c #640000",
"2  c #750000",
"3  c #7B0000",
"4  c #741716",
"5  c #6D1213",
"6  c #453131",
"7  c #4A3737",
"8  c #4C3A3A",
"9  c #46373B",
"0  c #513E3E",
"q  c #5A3E3E",
"w  c #6A3C3C",
"e  c #6C2A2A",
"r  c #3F0240",
"t  c #450144",
"y  c #440A44",
"u  c #450049",
"i  c #4C014C",
"p  c #4D0B4D",
"a  c #470B4B",
"s  c #500B4F",
"d  c #4B134B",
"f  c #441743",
"g  c #52154F",
"h  c #4B0752",
"j  c #520152",
"k  c #520C52",
"l  c #5C005C",
"z  c #57065B",
"x  c #531453",
"c  c #551C55",
"v  c #581959",
"b  c #472647",
"n  c #552455",
"m  c #5A235A",
"M  c #592B5A",
"N  c #5A3559",
"B  c #493849",
"V  c #66385E",
"C  c #5B1461",
"Z  c #5A0062",
"A  c #69026B",
"S  c #650567",
"D  c #67196A",
"F  c #720175",
"G  c #681871",
"H  c #652E65",
"J  c #6D3E6F",
"K  c #643764",
"L  c #722E74",
"P  c #743875",
"I  c #743E6C",
"U  c #3B4040",
"Y  c #434B4B",
"T  c #484549",
"R  c #574747",
"E  c #5A485A",
"W  c #4A5151",
"Q  c #475050",
"!  c #595757",
"~  c #7D4B4B",
"^  c #764F4F",
"/  c #6A5C5C",
"(  c #7B5353",
")  c #775B5B",
"_  c #6C4140",
"`  c #69476A",
"'  c #635364",
"]  c #6A5B6A",
"[  c #74566C",
"{  c #6A4E7B",
"}  c #744874",
"|  c #6E5F72",
" . c #7A587C",
".. c #774466",
"X. c #636565",
"o. c #7B6767",
"O. c #776279",
"+. c #6C7171",
"@. c #767374",
"#. c #6D6F70",
"$. c #840000",
"%. c #8B0000",
"&. c #890D0D",
"*. c #900000",
"=. c #8B1414",
"-. c #A90000",
";. c #B70909",
":. c #A81615",
">. c #B51212",
",. c #BA1212",
"<. c #C30E0E",
"1. c #CD1313",
"2. c #C21214",
"3. c #D31E0A",
"4. c #C02209",
"5. c #93591C",
"6. c #A34700",
"7. c #A9540C",
"8. c #A86115",
"9. c #855227",
"0. c #A65C21",
"q. c #867B3F",
"w. c #A66B2E",
"e. c #C1640D",
"r. c #804D4D",
"t. c #854442",
"y. c #804F50",
"u. c #835353",
"i. c #8B5B5B",
"p. c #8A5559",
"a. c #9C5656",
"s. c #84504E",
"d. c #A45758",
"f. c #B65B5B",
"g. c #977355",
"h. c #A26C44",
"j. c #A67B54",
"k. c #8D457A",
"l. c #846262",
"z. c #8E6B6B",
"x. c #8A6464",
"c. c #976464",
"v. c #946D6D",
"b. c #9A6D6D",
"n. c #9F6364",
"m. c #8B687F",
"M. c #85797A",
"N. c #9D7473",
"B. c #9A7B7B",
"V. c #967774",
"C. c #86746D",
"Z. c #B46867",
"A. c #A37373",
"S. c #AA7B79",
"D. c #B67A7A",
"F. c #A66565",
"G. c #CD6A6A",
"H. c #A38E0B",
"J. c #ADA707",
"K. c #C58138",
"L. c #A6907C",
"P. c #A69248",
"I. c #D09151",
"U. c #7D5F80",
"Y. c #825F87",
"T. c #836884",
"R. c #877A8B",
"E. c #8B7D8D",
"W. c #8B768C",
"Q. c #8B6D91",
"!. c #937B90",
"~. c #8C7291",
"^. c #788282",
"/. c #8A898A",
"(. c #948282",
"). c #9B8385",
"_. c #9A8C8A",
"`. c #928989",
"'. c #8A908E",
"]. c #9A9696",
"[. c #949999",
"{. c #9A9999",
"}. c #979498",
"|. c #959093",
" X c #A88989",
".X c #BC8582",
"XX c #AA9787",
"oX c #A39393",
"OX c #A39B99",
"+X c #AC9B9C",
"@X c #A79697",
"#X c #B59C9E",
"$X c #B09B8C",
"%X c #9AA29F",
"&X c #ADA19B",
"*X c #AFAD9C",
"=X c #B7A287",
"-X c #9796A3",
";X c #AE9EA1",
":X c #9DA4A3",
">X c #A2A4A4",
",X c #ACABAC",
"<X c #B5AAA5",
"1X c #B7A7A7",
"2X c #ADB0A6",
"3X c #B6B4A9",
"4X c #A4A6B7",
"5X c #AAB1B1",
"6X c #B2B4B4",
"7X c #B6BBBB",
"8X c #BABDBC",
"9X c #B4B7B9",
"0X c #B1ADB5",
"qX c #C38F86",
"wX c #C0AAAA",
"eX c #BAC5BD",
"rX c #B9BEC0",
"tX c #BCC3C2",
"yX c #BECBC4",
"uX c #BDCACA",
"iX c #C0C6C4",
"pX c #C2CAC6",
"aX c #C6D2CA",
/* pixels */
"9 9 7 8 8 7 9 U 7 7 7 7 7 0 0 8 7 8 9 U 0 0 0 8 8 6 6 7 0 7 9 = ",
"0.3.,.>.,.<.e ! 1.>.,.>.,.,.,.>.,.<.e W 1.1.1.<.,.,.;.>.:.>.4.5.",
"J.g.'.].OX{.[.[.{.}.{.[.{.[.{.[.{.{.[.[.{.{.{.{.}.[.].{.}./.P.H.",
"4 t.v.~ / ( u.i.u.~ u.u.u.u.u.~ r.y.s.u.u.u.~ u.i.a.f.) q /._ , ",
"5 a.i.!./ C.<X_.<X1X#X+X+X#X<X<X<X<X4X1X+X;X1X@XT.1X X/ B.d.q O ",
"6 (.M./.eX'.'.c } 6XaXpXtX0XE.W.T.N.I.wXtXeX-XJ j :X>X8X{./ X.+ ",
"-.Z.L.o.6X}.E E t j } !.2X6Xv t h e w.=XQ.P j i E m./.iX@.o.l.3 ",
"%.F.D.).'.D C E T y l j k }.T.i h U.;XC j Z f T E l L {.o.v.x.1 ",
"*.n.N.#X%Xd l S v b $ t v {.} u i } {.n u t 6 g j A G '.M.v.l.1 ",
"> z.A.3XW.! b S S S i y v /.} i i I E.c y i z j S P ! #.L.b.l.; ",
"* M.N.#XC a B B M D Z i t m M j i m n t u l C K X.E f a (.A.+.  ",
":.G. X#XD j t $ y A l j i j i k x i t i i l F k j t $ k !.N.x.O ",
"4 Z.L. X| v k a y j l j i s K L L K k j l S S i y r f | ).S.x.X ",
"&.d.V.I g V N n b y j S l s P F F L x l A l g b f % N v k.qXc.X ",
"4 d.C.V i z j i i i j j j p L A F L k j l j i t y u j Z k..Xz.X ",
"0 M.v...u i i k n x i c d j ] ' ` ] j x n i d n p y j j [ S.#.+ ",
"-.Z.N.oXR.` ` N s j m v i j k N N j i i v n i s N ` I R._.N.o.2 ",
"%.n.N.@XT.H k i i m n i M x j i i j v M s v n t p z H m.M.) ^ 1 ",
"%.n.A.oXv u j i m m j ` ` j j i j j j ` ` i m m j l i n M.l.^ 1 ",
": x.A.&XR.t t c m i s m i s j i i i j i m s i m c i i W.OXv.l.; ",
"* /.D.wXiXm. .{ t i Q.G i j c j j c j i G Q.i t {  .T.8X+XA.+.  ",
"=.G.S.#X8X8X*Xh...!.3Xp.t i x j j x p t p.3X!...h.*XeXtX<XD.v.X ",
"=.f.A.@X9X9X$X5.8.e.6.9.m.E.H u i H ~.T.9.6.e.8.5.$XrXpX9XG.v.X ",
"&.f.v.oX6X9XL.9.0.7.j.w.2XP u j j t I 2Xw.j.7.0.9.L.7X7X#XA.x.X ",
"4 d.v.@X,X6XXX[.j.g.4X[ d i s j j s t g ] 4Xg.j.-XXX9X9X@XN.[ X ",
"6 /.z.B.uX7XrX8X&XXX` t t m } i i } m t t ` XX&X8X8X8XuXL.c.@.+ ",
"-.d.,X~ u.(.+X9XtX7X6X/. .{.H i i H {. ./.6XrXtX9X+X_.i.~ 5X^ 1 ",
"%.: ) :X@Xb.u.~ z.@X7XuXyXeX[ t u [ 8XiXiX7X@Xv.~ u.b._.{.) : 1 ",
"$.2 : < ) M.:X>XL.( ~ z.oX,XuXO.O.yX,XoXv.( u.B.&X>XM._ > : 1 %.",
"$.$.3 3 1 1 : w x.'.@XV.c.( i.`._.i.~ c.v. X`.@.! : : 1 2 $.2 $.",
"@ , @ @ , , , O o   - X.U.%X(.c.x.L.].^.W * o . & @ # , @ @ @ , ",
"Y Q Y Y Q Q Q Y Y U & &   & - +.+.= &     - - = U Y W Q Q U Y Q "
};
