/* XPM */
static char *greenlight[] = {
/* columns rows colors chars-per-pixel */
"32 32 49 1 ",
"  c black",
". c #000100",
"X c #010201",
"o c #313131",
"O c #5B5D5A",
"+ c #060606",
"@ c #010301",
"# c #042B02",
"$ c #0E580A",
"% c #166E10",
"& c #063803",
"* c #031902",
"= c #011900",
"- c #008B00",
"; c #00CF00",
": c #00DD00",
"> c #00B800",
", c #009A00",
"< c #007300",
"1 c #013400",
"2 c #021C00",
"3 c #00B100",
"4 c #2EF82C",
"5 c #6EFE6C",
"6 c #86FE6E",
"7 c #8BF54B",
"8 c #7FDE6E",
"9 c #57CE55",
"0 c #0BBE08",
"q c #015C00",
"w c #001A00",
"e c #058D03",
"r c #38E535",
"t c #7FEB7E",
"y c #C9EDB1",
"u c #CDEF9B",
"i c #AEF3A6",
"p c #55F353",
"a c #1DCD1A",
"s c #004B00",
"d c #010101",
"f c #000700",
"g c #000D00",
"h c #000C00",
"j c #000900",
"k c #020002",
"l c #010001",
"z c #000200",
"x c white",
/* pixels */
"            .X oO+ .            ",
"           . @#$%&* .           ",
"          . =-;:>,<1            ",
"         . 234567890q           ",
"         . wertyuipasd          ",
"             fgghhj.            ",
"           ..kl   k z           ",
"                                ",
"                                ",
"                                ",
"                                ",
"                                ",
"                                ",
"                                ",
"                                ",
"                                ",
"                                ",
"                                ",
"                                ",
"                                ",
"                                ",
"                                ",
"                                ",
"                                ",
"                                ",
"                                ",
"                                ",
"                                ",
"                                ",
"                                ",
"                                ",
"                                "
};
