/* XPM */
static char *mossy[] = {
/* columns rows colors chars-per-pixel */
"32 32 219 2 ",
"   c #1C1C1C",
".  c #191817",
"X  c #3A380A",
"o  c #2B2B13",
"O  c #22221E",
"+  c #262616",
"@  c #302F15",
"#  c #3A3816",
"$  c #2A2906",
"%  c #1D1D23",
"&  c #1A1B2B",
"*  c #171828",
"=  c #242423",
"-  c #2A2A23",
";  c #24242A",
":  c #2C2C2C",
">  c #333225",
",  c #32322D",
"<  c #3B3A28",
"1  c #2C2C31",
"2  c #2C2C3B",
"3  c #262634",
"4  c #343433",
"5  c #3A3A36",
"6  c #34343C",
"7  c #3B3B3B",
"8  c #524F02",
"9  c #494710",
"0  c #595814",
"q  c #706D02",
"w  c #7D7B05",
"e  c #7A7708",
"r  c #6A6915",
"t  c #787516",
"y  c #736F16",
"u  c #494928",
"i  c #424134",
"p  c #41413D",
"a  c #484833",
"s  c #525235",
"d  c #5B5B35",
"f  c #59583A",
"g  c #676527",
"h  c #716F2B",
"j  c #797928",
"k  c #6B6A34",
"l  c #67663C",
"z  c #797837",
"x  c #2A2B41",
"c  c #333442",
"v  c #3C3C44",
"b  c #3A3B4C",
"n  c #3D3E51",
"m  c #444544",
"M  c #45454A",
"N  c #4B4B4B",
"B  c #494844",
"V  c #504F41",
"C  c #4F504D",
"Z  c #52524C",
"A  c #4B4B52",
"S  c #4B4C5C",
"D  c #535352",
"F  c #5C5C54",
"G  c #55555B",
"H  c #5C5C5C",
"J  c #575851",
"K  c #6D6C4D",
"L  c #696847",
"P  c #73724E",
"I  c #797749",
"U  c #646454",
"Y  c #63635E",
"T  c #6B6A58",
"R  c #706F58",
"E  c #737353",
"W  c #7B7951",
"Q  c #7B7A59",
"!  c #545464",
"~  c #5C5C62",
"^  c #636362",
"/  c #6D6D63",
"(  c #646469",
")  c #6C6B6C",
"_  c #74746F",
"`  c #78786A",
"'  c #6B6B72",
"]  c #636471",
"[  c #747473",
"{  c #75757C",
"}  c #7C7C7C",
"|  c #7A7A76",
" . c #817E1D",
".. c #827D07",
"X. c #827E2D",
"o. c #827F40",
"O. c #8B8A09",
"+. c #898708",
"@. c #928E04",
"#. c #9D9B01",
"$. c #959306",
"%. c #8A8615",
"&. c #908D12",
"*. c #9A9718",
"=. c #A29E00",
"-. c #A09A09",
";. c #ABA602",
":. c #ABA70A",
">. c #B4AD0A",
",. c #BAB405",
"<. c #ADAA15",
"1. c #8B8922",
"2. c #878429",
"3. c #979425",
"4. c #8B8931",
"5. c #888637",
"6. c #999638",
"7. c #908A25",
"8. c #A8A427",
"9. c #B2AE25",
"0. c #B9B329",
"q. c #A7A437",
"w. c #B3AE3D",
"e. c #C3BA00",
"r. c #C4BE18",
"t. c #C7BF29",
"y. c #D3CA0D",
"u. c #D1CC37",
"i. c #84824C",
"p. c #8A884B",
"a. c #908D47",
"s. c #94924F",
"d. c #9A9748",
"f. c #8C8B5B",
"g. c #888757",
"h. c #908F54",
"j. c #979659",
"k. c #A19E5C",
"l. c #A39F49",
"z. c #A7A34B",
"x. c #B1AD4E",
"c. c #B8B44A",
"v. c #AAA756",
"b. c #B2AE52",
"n. c #B9B75B",
"m. c #8B8A63",
"M. c #878768",
"N. c #908F61",
"B. c #929161",
"V. c #9A9868",
"C. c #84847C",
"Z. c #888778",
"A. c #92927B",
"S. c #979677",
"D. c #A09E62",
"F. c #A4A36B",
"G. c #A9A76A",
"H. c #ABA866",
"J. c #B0AF66",
"K. c #AAA877",
"L. c #B0AE7D",
"P. c #B8B678",
"I. c #B3B064",
"U. c #C1BD61",
"Y. c #CCC744",
"T. c #C9C577",
"R. c #D0CC6D",
"E. c #757584",
"W. c #7B7B83",
"Q. c #797A91",
"!. c #7F809A",
"~. c #848485",
"^. c #8B8B83",
"/. c #83838B",
"(. c #8B8B8B",
"). c #94948B",
"_. c #9C9B8C",
"`. c #969685",
"'. c #868691",
"]. c #878895",
"[. c #8C8C93",
"{. c #8A8A9A",
"}. c #939393",
"|. c #9C9C94",
" X c #94949C",
".X c #9B9B9C",
"XX c #A6A584",
"oX c #A7A58A",
"OX c #A8A897",
"+X c #B8B797",
"@X c #B8B68E",
"#X c #8082A3",
"$X c #9595A2",
"%X c #9C9CA3",
"&X c #9D9DAA",
"*X c #9393A8",
"=X c #A5A5A1",
"-X c #ABABA2",
";X c #A6A6AC",
":X c #ACACAC",
">X c #B0AFA3",
",X c #B4B4A4",
"<X c #B8B7A8",
"1X c #AEAEB3",
"2X c #A7A7B9",
"3X c #B4B4B4",
"4X c #BDBCB4",
"5X c #B7B7BB",
"6X c #C0BFB3",
"7X c #C1C0AF",
"8X c #CECDB8",
"9X c #D5D4BE",
"0X c #B6B6C9",
"qX c #A4A4C3",
"wX c #C3C3C5",
"eX c #C8C8C9",
"rX c #D3D3CA",
"tX c #CDCDDB",
"yX c #D7D7D6",
/* pixels */
"7 7 c v v Y X.w Q '.^.W %.D 7 } ^.Z.%.g G 4 5 7 p 5 6 c v c 7 5 ",
"[ { E.Q.p &XR.,.v.u.T.eXr.V / tXXXb.#.t ( 3 d ,.O.].F.3.F 4./ { ",
",Xq.}.o., %XU.e Q v.V./.i.< S K.h.$Xl l ~ ; y e.U P.Y.,.U ;.z 1X",
"OXQ (.) = .X+Xk }.qXs.A.(.7 6 f.z.|./.{ p 2 0 t Q.0.s.r U ' K I ",
".X}.[ M    XeX!.x.j.[..X X7 , G S 4 , : = 1 H }.V.^.}._ | .X}.^.",
"H H v :   (.eX~.0.4.$X(.^.m : v 5 U ( } E > ^ -XK Z.5.( ) ^ ^ H ",
"= = - - : ) wX}.M.(.[.^.o.A   ' u.T.0X8Xn.X v H A p > , : = O = ",
"M v v v 7 N .X;XD.j.{.).l S % M.>.W.u.d.k u 7 i 7 , b b v m n v ",
"G.K.L.N.G : /.S.5.f./.(.[ H * 7.k.A.>.C.R 2  .<.C ! G.b.XX|.x.L.",
">.8.;.g A , Y C.E.W._ ) ^ m . / ].m.Z N M 3 y 2.c / y.z.<.A.,.5.",
").D.q T M 4 A n 4   ; - & * . m D : = ; ; - Z.S.7 / |.).M. X8.z ",
"F.p.E.W.v 2 o.e s ' C 1 g %.z  X3X:.;.*.u S tXwXB H >XXXOXoX X).",
"a.j. X_ 6 > ,.*.` ^.H B n.n.F.@XOXj.3.$.X U @XOXr h M.F.,.5./.~.",
"D A v : = 5 O.' M.e 7 v 5XU.8.s.9.}.S.Q o U j.=Xu 5 : # X @ 5 m ",
"v M J G H D -X).h.W a 4 7XU.&.~.|._.*./ + X.rX5Xp 5 5 4 4 3 ; : ",
"^.0.d.1X-XN wXOXg.{.s : ;X0.h [.%X_.*.U o h 9Xq.5 s +.#.=.+.L A ",
"4.&.E.l.5.S 4X%X).(.s + } J.6.V.'.C.*.J O z 8X&.: W.`.O.j y E M ",
"|  X$X*.h A 3X|.x.(.s . ' yX@.E %XD.%.A . M.4Xq $ '.6X+./. X{ 7 ",
"=X1XA.e R M 5X|.d.(.f $ M ,XM.W.Z.L [ N = ~ / 8 < ( _ g ^ ) H 4 ",
";X,Xh.h.m.v =X;X*X~.T o v G ! c 2 : m 4 , B 7 v m i ; x : 3 : 4 ",
"B.9.}.$.z 2 }.>Xg.{./ X 6 l r r y L ' } /.[..XV.#.1.oXz.V.6.} B ",
"7.4.$XM.K % }.OXK {.U # ; -.y.e.y.:.-X5XP.L.3X9.6.0.b.P.c.;.K 6 ",
"j N..X.X( O (.:X X}.Y @ % l z.$.@.w I 0XF.N.=XoXH.6.^.&Xf.a.~ 4 ",
"^ ~.[ ^ 7 ; | =X}.~.~ 1   { yXj g P C.XX;X%XJ.F.Z.!.w.v.%Xi.~ , ",
"M 6 2 6 1 5 N D C C B : . ) rX[.%X;.s..X%XOXw.j.>XOXj.|._.V.F : ",
"~ o...g i M c & & & & ;   C ^ N Z 0 K /.S.z.%./.'.}.{.).V.].H : ",
"| y.y.v.G.K.6.%.e t t d G G S p 7 c 6 v p p v 7 7 6 5 m 7 7 4 4 ",
"W.<XOX0X:X3X+XL.q.6.*.+.}.4Xc.-X( B p i 5 - : 1 , > - + ; = 7 N ",
"} eX2Xc.@.1XwX0X+XOX&X-X%X,Xx.~.m c h =.z [.) L :.$.z M.g.` ( A ",
"[ ) M a a G D D C G ^ ) D C S M 5 = / w E 5X/.R _.`.c.<X<.|.}.4 ",
"N , - ; - = = = % = % % = = = = ; - m 9 m 7 p N ' 4.t E d ( D 7 ",
"m M m p v v 5 7 7 5 5 7 5 5 5 6 5 5 5 p 5 1 , 7 4 = 3 - - : : 5 "
};
