/* XPM */
static char *purplestone[] = {
/* columns rows colors chars-per-pixel */
"32 32 206 2 ",
"   c #3D261C",
".  c #3E2B1A",
"X  c #3C2C17",
"o  c #3F3618",
"O  c #391727",
"+  c #3F1F20",
"@  c #3C132C",
"#  c #3E0B35",
"$  c #3F013E",
"%  c #3E1130",
"&  c #3F2E24",
"*  c #462E1E",
"=  c #443615",
"-  c #453912",
";  c #4A3A16",
":  c #453319",
">  c #4B341D",
",  c #40391A",
"<  c #4E391A",
"1  c #543C1C",
"2  c #593E1E",
"3  c #513A1A",
"4  c #401E27",
"5  c #431A2D",
"6  c #43063E",
"7  c #490D3D",
"8  c #430A3A",
"9  c #451335",
"0  c #481535",
"q  c #4A1B34",
"w  c #471538",
"e  c #4C143B",
"r  c #4E1839",
"t  c #521F35",
"y  c #52153E",
"u  c #531B3C",
"i  c #452424",
"p  c #4B2A25",
"a  c #4C242C",
"s  c #482627",
"d  c #52272E",
"f  c #532D2B",
"g  c #4D3121",
"h  c #433025",
"j  c #523422",
"k  c #5B3B24",
"l  c #573229",
"z  c #5A322B",
"x  c #5A3726",
"c  c #4D2031",
"v  c #542235",
"b  c #5B2736",
"n  c #5A2C32",
"m  c #5B233C",
"M  c #4B3C3B",
"N  c #5C3030",
"B  c #613E25",
"V  c #60372A",
"C  c #643A2B",
"Z  c #683B2D",
"A  c #62263F",
"S  c #642C3A",
"D  c #672F39",
"F  c #643233",
"G  c #6B3735",
"H  c #6E3A35",
"J  c #653038",
"K  c #6B313B",
"L  c #72353D",
"P  c #713B35",
"I  c #47420B",
"U  c #55490F",
"Y  c #4D4211",
"T  c #524412",
"R  c #5C421C",
"E  c #5E4819",
"W  c #5C4716",
"Q  c #61461D",
"!  c #634A1B",
"~  c #694E1B",
"^  c #614F14",
"/  c #6D511C",
"(  c #6D5814",
")  c #49422A",
"_  c #5D4020",
"`  c #484231",
"'  c #474332",
"]  c #535236",
"[  c #634123",
"{  c #6A4426",
"}  c #674820",
"|  c #6D4B22",
" . c #724C25",
".. c #76452F",
"X. c #714829",
"o. c #7E4D2D",
"O. c #725020",
"+. c #795423",
"@. c #3F0041",
"#. c #450244",
"$. c #4B0646",
"%. c #4D0B43",
"&. c #4C014C",
"*. c #450248",
"=. c #500C47",
"-. c #51054D",
";. c #530A4A",
":. c #590F4D",
">. c #531444",
",. c #591646",
"<. c #561A43",
"1. c #5A1C42",
"2. c #551048",
"3. c #5B144C",
"4. c #5E184B",
"5. c #4E0052",
"6. c #520153",
"7. c #570A53",
"8. c #5B0B53",
"9. c #56005A",
"0. c #5B015C",
"q. c #5E0859",
"w. c #601C46",
"e. c #62164C",
"r. c #621A4B",
"t. c #681C4F",
"y. c #600E56",
"u. c #61055E",
"i. c #630D5A",
"p. c #631355",
"a. c #691556",
"s. c #661A51",
"d. c #6D1C54",
"f. c #65115B",
"g. c #6B135C",
"h. c #701E54",
"j. c #7A1E5B",
"k. c #70155D",
"l. c #5D2140",
"z. c #632343",
"x. c #692545",
"c. c #662841",
"v. c #6B2944",
"b. c #6C234B",
"n. c #672249",
"m. c #71254C",
"M. c #742B48",
"N. c #78294E",
"B. c #702B47",
"V. c #6F3040",
"C. c #783346",
"Z. c #6F2150",
"A. c #742153",
"S. c #792554",
"D. c #7B2A52",
"F. c #7D235B",
"G. c #560062",
"H. c #5E0063",
"J. c #5E0068",
"K. c #630264",
"L. c #690566",
"P. c #660860",
"I. c #6D0C63",
"U. c #64006A",
"Y. c #6B016C",
"T. c #6E086A",
"R. c #72066D",
"E. c #750B6E",
"W. c #711262",
"Q. c #791664",
"!. c #7D1B63",
"~. c #7C136A",
"^. c #660070",
"/. c #6C0073",
"(. c #6E0079",
"). c #720174",
"_. c #790475",
"`. c #770974",
"'. c #7C0B73",
"]. c #73007A",
"[. c #7A017C",
"{. c #7E0A78",
"}. c #83354C",
"|. c #812B56",
" X c #821A67",
".X c #85077F",
"XX c #871277",
"oX c #88107B",
"OX c #882267",
"+X c #770080",
"@X c #7C0082",
"#X c #7F0089",
"$X c #820084",
"%X c #86008C",
"&X c #8C028A",
"*X c #8D0B82",
"=X c #940B8C",
"-X c #93068F",
";X c #971384",
":X c #870092",
">X c #8D0094",
",X c #920193",
"<X c #94009A",
"1X c #98009A",
"2X c #9B00A4",
"3X c #A200A4",
/* pixels */
"W./.#.#./.).9.6 $ &.[.v.c.9.$ $ $ *.Y.&X).K.$ $ $ $ #.-.Y.a.S S ",
"_ ~.Y.6.H.K.0.#.#.].OXZ c.w.9.#.9.6.).$X].L.&.#.#.*.9.U.~.X.! z ",
"c.l.@X0.K./.K.K.0.0.[.).`.4.:.! K Y.K.i.v B { B 1 ; e U.!.! t a.",
"'.d.].).j. Xt.].).Y.0.L.P.u B z n Y.a Q  . .Q > p v > 7 ).[ u r.",
"I.4.(.S./ E l.G.0.K.9.H.P.m l ).f.3.2 X.o. .j 9 m `.l.w 0.1 1.,.",
"-.<.:XOXE < <.Y.F Q k u.u.y u [.2.i l M.O.R ; 3.].S j p 9.d t 9.",
"-.3.,XN.1 5 %.3.! g.B.'.5.*.=.9.&.-.f m.W i.I.> b.; f g ).:.7 &.",
"6.U.S.V $X'.# m R /.t.u.&.q ;./.).$.c S.m p.h.{ T 8./.a p.Y.*.*.",
"6.Y.b.{.%Xq.@ e.x.u.>.$.F ( ^ u U.6 >.`.n.E ~ Q T 3.(.f.: =.*.&.",
"9.0.g._.Y.P.% Y..XU.&.L.}. XF.B r $.3./.f ! g c g <.Y./.4.# 5.H.",
"W./.Y.U.0./.Y.K.U.6.K.C.=X*Xz.n = e <.H.m x q ^.r 2.H.K.<.H.W.v.",
"! K U.9.).).5.9 v Y.D.H M.U >.q.i Y k 0.Y.z.%.0.Y.Y.6.#.j M.../ ",
"t - 8.].&X/.7 F p H.D.K v.* ].v o > 1 f L.T.).[./.H.#.9.| }.#Xg.",
"].m v ].H.d Q i.>.8. XJ 0.b.m.> - p.g.> o i.Y.Y.6.@.&.Q. .D.A.0.",
"/.b.A J.%.:.1.I.K.5.).oX2X<XS r W.r.g.b Y q 6.y R 3.+XD.G OX| M.",
"+Xz.c./.9./.{.t.v 4 ).,X|.t.l I.[.e P.m I >.9.d Q.@X$XF.=X>X-XC ",
"/.z.z./.K.3X;Xx S 3.$XS.T : n >XY.Y.%Xd.I u G.q ).Y.).F.*XY.f.< ",
"/.B.l.+XY.1XN < 4.L.$Xl.>.0.> P.&.[.@Xv h 8.6.q ;.9.K.t.`.U.e ; ",
"H.r.3.0.K.%Xr.: l.$.].1.6.7.. &.0.K.U.>.<./.K.1.$.6.6.r 7./.K.[ ",
"0.Y.G.&.5.Y.P.y %.#.5.r $.K.a #.6.K.).K.r Y.%X4.;.@X[.8.#.&.-.B ",
"9.L.b.Y.U.9.@X.X[.K.G.w 6 9.w 6 9.].Y.H.=.9.U.d R K '.[.Y.*.6 > ",
"9.d.F r.Y.[.!.} k K./.0 $.*.q $.K.0.6.-.&.&.].S.! p ,.[.[.Y.&.. ",
"9.t.f.t.@Xj.H b : 0.9.5 z k B &XK.K.[.K.-.0.XX!.1.#.0.$XU.K.L.O ",
"6.y E.].$Xi.P.H.I.g.K.q +.X.} <XF.l #X[.U.k...t.7.7 f C.[.).Y.%.",
"5.0 u.K.Y.U.9.Y.I.f.U.J } B Q V.>XJ p.].R.| [ B r.J ~ _ H.].[.3.",
"#.% 6 *.-.9.0.6.O 7.w.P R 1 R T A.b.i G.x.C u &.).b.b f T._./.:.",
"*.# #.6.K.L.R.Y.w < R ; < 1 p w m k 2 0 u I.1.z > j _.3.k.k d %.",
"*.#.9.%XXXZ [ v.K.Y i @ 4 : u #X).: - > 0 =.f.p.  d Y.r K.m Y &.",
"*.*.U.<Xx.e./.S 8.m 8.-.>.9.r @X_.. 9 h 6.%.y =.p a U.y 9.;.< <.",
"-.*.z.G 1.a.[.3.8.2.+Xq.i q >.K.5.% 7.  &.-.>.H.r.l.5 r 7.J | F ",
"4 3.J x.d.(.v = > p y i l 2 R > > : s   0.L..XI.p g < > k ~ l.u ",
"' : u 3.: X = 2 < ) ] ) g k k 2 < < < : * h M ` , < 2 2 2 > h ' "
};
