/* XPM */
static char *wood[] = {
/* columns rows colors chars-per-pixel */
"32 32 256 2 ",
"   c #5E4021",
".  c #5D4021",
"X  c #604121",
"o  c #5F4121",
"O  c #5F4021",
"+  c #604122",
"@  c #724C27",
"#  c #734C28",
"$  c #754D28",
"%  c #714B27",
"&  c #664423",
"*  c #6C4825",
"=  c #744D28",
"-  c #734C27",
";  c #6F4A27",
":  c #674523",
">  c #754E28",
",  c #6E4A26",
"<  c #6B4825",
"1  c #724C28",
"2  c #6C4826",
"3  c #654423",
"4  c #443516",
"5  c #674522",
"6  c #624321",
"7  c #4B3519",
"8  c #5B411F",
"9  c #3C3113",
"0  c #5D411F",
"q  c #5F4220",
"w  c #533C1B",
"e  c #4D3919",
"r  c #513C1B",
"t  c #4E361A",
"y  c #634421",
"u  c #614321",
"i  c #4C351A",
"p  c #5F4221",
"a  c #463517",
"s  c #634322",
"d  c #4D361A",
"f  c #593E1E",
"g  c #5F4320",
"h  c #4B3819",
"j  c #593F1E",
"k  c #573E1D",
"l  c #644422",
"z  c #614221",
"x  c #453217",
"c  c #4A3818",
"v  c #734B27",
"b  c #573B1E",
"n  c #6B4725",
"m  c #6D4925",
"M  c #423516",
"N  c #694624",
"B  c #644421",
"V  c #5A401E",
"C  c #533D1B",
"Z  c #59401E",
"A  c #593C1E",
"S  c #674623",
"D  c #6A4824",
"F  c #7C502B",
"G  c #6D4825",
"H  c #573B1D",
"J  c #634422",
"K  c #664623",
"L  c #604321",
"P  c #50381B",
"I  c #7D522B",
"U  c #583F1D",
"Y  c #503B1B",
"T  c #5B3F1F",
"R  c #684624",
"E  c #4F3A1A",
"W  c #714A27",
"Q  c #523C1B",
"!  c #583F1E",
"~  c #664523",
"^  c #624421",
"/  c #694724",
"(  c #553A1D",
")  c #6F4A26",
"_  c #654623",
"`  c #503B1A",
"'  c #5B401E",
"]  c #674622",
"[  c #6A4725",
"{  c #4F371A",
"}  c #473717",
"|  c #473617",
" . c #7A4F2A",
".. c #694623",
"X. c #744B28",
"o. c #543D1C",
"O. c #583C1E",
"+. c #59401F",
"@. c #7B502B",
"#. c #704A26",
"$. c #604320",
"%. c #604221",
"&. c #50371B",
"*. c #6E4925",
"=. c #4B3919",
"-. c #4E3A1A",
";. c #543A1C",
":. c #724B27",
">. c #6F4926",
",. c #4F3B1A",
"<. c #5C411E",
"1. c #5D4220",
"2. c #6E4926",
"3. c #794F2A",
"4. c #6E4A25",
"5. c #5B401F",
"6. c #6A4925",
"7. c #5E4120",
"8. c #7B502A",
"9. c #734B28",
"0. c #6C4824",
"q. c #4C3919",
"w. c #543A1D",
"e. c #624322",
"r. c #704926",
"t. c #563B1D",
"y. c #4F371B",
"u. c #764C28",
"i. c #6A4724",
"p. c #754C28",
"a. c #4A3918",
"s. c #644423",
"d. c #774D29",
"f. c #6B4824",
"g. c #5A411F",
"h. c #543C1C",
"j. c #714A26",
"k. c #5A401F",
"l. c #764D28",
"z. c #5E411F",
"x. c #583B1E",
"c. c #784E29",
"v. c #624422",
"b. c #523D1C",
"n. c #403415",
"m. c #5E4220",
"M. c #664522",
"N. c #4E371A",
"B. c #7B512B",
"V. c #463717",
"C. c #684623",
"Z. c #604220",
"A. c #563F1D",
"S. c #573F1E",
"D. c #413415",
"F. c #7C512B",
"G. c #523B1B",
"H. c #6E4825",
"J. c #513B1B",
"K. c #513C1A",
"L. c #684524",
"P. c #553E1D",
"I. c #674524",
"U. c #5C411F",
"Y. c #4D3A19",
"T. c #453617",
"R. c #654522",
"E. c #553C1C",
"W. c #493818",
"Q. c #4F3C1B",
"!. c #704B26",
"~. c #734D28",
"^. c #453717",
"/. c #5C401F",
"(. c #573F1D",
"). c #724A27",
"_. c #654622",
"`. c #51381B",
"'. c #6D4A26",
"]. c #5D401F",
"[. c #483818",
"{. c #533D1C",
"}. c #654422",
"|. c #614322",
" X c #52381B",
".X c #6B4925",
"XX c #5D421F",
"oX c #443616",
"OX c #6A4723",
"+X c #704A27",
"@X c #6C4925",
"#X c #563E1D",
"$X c #5B411E",
"%X c #6B4A25",
"&X c #634321",
"*X c #593E1D",
"=X c #58401E",
"-X c #423515",
";X c #523C1C",
":X c #6B4724",
">X c #553D1C",
",X c #674624",
"<X c #6C4A25",
"1X c #453616",
"2X c #7B4F2A",
"3X c #704B27",
"4X c #7E512C",
"5X c #563D1C",
"6X c #533E1C",
"7X c #6F4925",
"8X c #784F2A",
"9X c #563E1C",
"0X c #694723",
"qX c #744C28",
"wX c #4D3A1A",
"eX c #583E1D",
"rX c #644522",
"tX c #423415",
"yX c #714C27",
"uX c #493718",
"iX c #533B1B",
"pX c #533B1C",
"aX c #5A3F1D",
"sX c #573D1D",
"dX c #5E401F",
"fX c #6A4624",
"gX c #674723",
"hX c #614220",
"jX c #6D4824",
"kX c #503C1B",
"lX c #533C1C",
"zX c #553B1D",
"xX c #5E421F",
"cX c #764D29",
"vX c #654523",
"bX c #5F4120",
"nX c #6C4724",
"mX c #774E29",
"MX c #4E3B1A",
"NX c #684724",
"BX c #5F411F",
"VX c #4A3819",
"CX c #483717",
"ZX c #5B3F1E",
"AX c #433616",
"SX c #7F522C",
"DX c #794E29",
"FX c #5C401E",
"GX c #80532D",
"HX c #4A3919",
"JX c #5C4220",
"KX c #81532D",
"LX c #4C391A",
"PX c #5A3F1E",
"IX c #7A502B",
"UX c white",
/* pixels */
"    .   X o             O X o .   X o   O O X o .         o + . ",
"@ # $ % & * = % # # @ - ; : * > ; : * - % , : < $ @ # # 1 2 3 = ",
"4 5 * 6 7 o 8 9 0 q w e r t X y u i X p a s d f g h j k l z x $ ",
"c l v 6 b n m M N B V C Z A N S D b N F G - H J K r L 0 * * P I ",
"U Y T Z H R % E W V V Q ! b ~ ^ / ( ~ F v ) ( u _ ` q ' ] [ { @ ",
"6 } | 0 H ~  ...X.o.' Q ! O.l +.D ( ~ @.W #.( 6 _ ` $.j %.n &., ",
"*.=.-.#.;.: F :.>.,.<.Q ! A z 1.2.;.& 3.:.4.( u _ ` $.5.j * &.6.",
"N S 7.m ;.~ 8.9.0.q.0 Q ! A z * #.w.e.m r.S t.u _ ` $.5.j * y., ",
"' u.i.u t.l $ p.~ a.0 Q ! O.s.d.f.( s g.h.Z A z _ ` q p U n { @ ",
"Y j.i.k.O.e.2.l.z q.z.r ! x.: c.v.t.l b.n.Z A z _ Y m.M.U [ N.B.",
"V.C.Z.A.A 6 J u.U -.q r ! b R ) ! b 3 S.D.q O.z _ Y m./ Q R N.F.",
"=.G.c V O.e.8 H.J.J.Z.K.! b L.8 P.x.I.#.f ) ( u _ J.U.i.Y.3 { F.",
"w T.} R.t.J A.E.W.o.j Q S.O.l Q.U b ~ F j.!.( 6 _ r j l Q J P ~.",
"' T.c S t.l b.T.^./.o.Q (.O.l r U.H ~ F ).) ( 6 _.r U 6 ' l `.'.",
"].[.E 6 t.l {.T.[.J r w (.O.s {.J t.3 c.:.) ( 6 _.Q k $.}.|. X.X",
"j G.k XXb l P.oXa.OXr w (.A u 8 0.( s +X:.@X( u _.Q #X$X* s.`.%X",
"E &X*X=Xb : ^ -X;X:Xh.>X(.A e.2.) ( e.^ G L b z _ r V #X#.,XP <X",
"[.].-.=Xb I.p.1Xq }.h.k (.O.3 2X2.w.l A.G.=XA z _ r z.J.#.R &.3X",
"} c 1XV b ~ 4X/.>.q 5XU A.x.~ F i.( l 6XD.V O.z _ Y q E 7XN { 8X",
"W.} T.q t.& 8.v d.9XU.' A.x.~ c.v.t.3 A.D.Z A z _ ,.M.=.0X[ N.F.",
"5XV.W.l t.l $ v qXwXm.eXA.b R ) j b : rXtXm.O.z K Y...q.u [ y.yX",
"&XuXiXf.t.u / p.#.} m.wXU b R J #Xb R # pX/ t.z K =.}.J.aXi.P %X",
"5 sXdXR.t.e.k.).y } C.} =Xx.3 {.(.x.~  .fX!.( u gXW.z o.E R `.%X",
"hXC.B m.b l b.>XJ.W.jX} Z O.J kX/.H ~ F :.) ( u gXW.6 z.c L.`.%X",
"k p.OX$Xb 3 (.oXV.lX:XoXZ O.s P.rXzX~ 8.j.0.( u gX} xX~ } : `..X",
"e j.C.V H : ^ 1XoX0 l n.V O.u R.) w.l cX>.vXt.z gX[.k 2.c s.`., ",
"} M.bX! H R 2.T.V.: U.4 U.b 3 2X2.w.s #.nXZ.b z gXq.E j.h.3 P # ",
"T.j lX! b 3 mXq.[.*.MX` m.t.~ F *.( e.K z.Z A %.NX` } i.BXl &.8X",
"W.VXCX5.O.u , B ZXj.V.C g t.~ F *.w.J S.uX=XA %.gXQ AXbXS ~ N.SX",
"E V.} R.t.e.Z W DXu oX/.g t.~ 8.i.( l 6XD.V O.%.rXFXoX;X:XR t GX",
"' oXe 0.( l kXj i.HXa.:Xm.t.: l.6 t.l 6XD.Z O.6 JXZ.V.W.J.R N.KX",
"Z.Y lXS ( 3 A.T.LXT.PX~ J ( I.u (.O.3 S.-Xm.H 3 m.5.W.[.1X~ { IX"
};
